<svg width="229" height="23" viewBox="0 0 229 23" fill="none" xmlns="http://www.w3.org/2000/svg">
<path d="M8.22656 18.1875C6.39062 18.1875 5.04688 17.8477 4.19531 17.168C3.34375 16.4883 2.91797 15.3984 2.91797 13.8984V8.0625H0.339844V5.44922H2.91797V2.32031H6.66797V5.44922H10.6055V8.0625H6.66797V13.4297C6.66797 14.2031 6.86328 14.7539 7.25391 15.082C7.64453 15.4023 8.29297 15.5625 9.19922 15.5625C9.45703 15.5625 9.70703 15.5508 9.94922 15.5273C10.1992 15.5039 10.418 15.4766 10.6055 15.4453V18C10.2773 18.0547 9.91016 18.0977 9.50391 18.1289C9.09766 18.168 8.67188 18.1875 8.22656 18.1875ZM19.9336 18.293C18.332 18.293 16.9336 18.0273 15.7383 17.4961C14.5508 16.9648 13.625 16.207 12.9609 15.2227C12.3047 14.2383 11.9766 13.0742 11.9766 11.7305V11.707C11.9766 10.3633 12.3047 9.20312 12.9609 8.22656C13.625 7.25 14.5547 6.49609 15.75 5.96484C16.9453 5.42578 18.3398 5.15625 19.9336 5.15625C21.5352 5.15625 22.9297 5.42188 24.1172 5.95312C25.3125 6.48438 26.2383 7.24219 26.8945 8.22656C27.5586 9.20312 27.8906 10.3633 27.8906 11.707V11.7305C27.8906 13.082 27.5625 14.25 26.9062 15.2344C26.25 16.2109 25.3242 16.9648 24.1289 17.4961C22.9336 18.0273 21.5352 18.293 19.9336 18.293ZM19.9336 15.5859C20.7617 15.5859 21.4883 15.4336 22.1133 15.1289C22.7383 14.8242 23.2227 14.3867 23.5664 13.8164C23.918 13.2461 24.0938 12.5508 24.0938 11.7305V11.707C24.0938 10.8945 23.918 10.2031 23.5664 9.63281C23.2227 9.0625 22.7383 8.625 22.1133 8.32031C21.4883 8.01562 20.7617 7.86328 19.9336 7.86328C19.1133 7.86328 18.3867 8.01562 17.7539 8.32031C17.1289 8.625 16.6406 9.0625 16.2891 9.63281C15.9453 10.2031 15.7734 10.8945 15.7734 11.707V11.7305C15.7734 12.5508 15.9453 13.2461 16.2891 13.8164C16.6406 14.3867 17.1289 14.8242 17.7539 15.1289C18.3789 15.4336 19.1055 15.5859 19.9336 15.5859ZM29.9648 18V5.44922H33.6914V7.89844H33.7617C34.2148 7.04688 34.8867 6.37891 35.7773 5.89453C36.6758 5.40234 37.7539 5.15625 39.0117 5.15625C40.8242 5.15625 42.2266 5.65234 43.2188 6.64453C44.2188 7.62891 44.7188 9.02344 44.7188 10.8281V18H40.9922V11.5664C40.9922 10.3945 40.7031 9.50391 40.125 8.89453C39.5469 8.28516 38.6992 7.98047 37.582 7.98047C36.793 7.98047 36.1055 8.13672 35.5195 8.44922C34.9414 8.76172 34.4922 9.19922 34.1719 9.76172C33.8516 10.3242 33.6914 10.9922 33.6914 11.7656V18H29.9648ZM45.9609 22.2656V19.1719H63.0117V22.2656H45.9609ZM69.6445 18.293C68.2852 18.293 67.1016 18.0195 66.0938 17.4727C65.0859 16.918 64.3047 16.1484 63.75 15.1641C63.2031 14.1797 62.9297 13.0352 62.9297 11.7305V11.707C62.9297 10.4023 63.2031 9.25781 63.75 8.27344C64.3047 7.28906 65.0859 6.52344 66.0938 5.97656C67.1016 5.42969 68.2852 5.15625 69.6445 5.15625C70.5195 5.15625 71.3086 5.26562 72.0117 5.48438C72.7227 5.70312 73.3398 6.01172 73.8633 6.41016C74.3867 6.80078 74.8086 7.25391 75.1289 7.76953H75.2109V0.972656H78.9375V18H75.2109V15.6797H75.1289C74.8086 16.2031 74.3867 16.6602 73.8633 17.0508C73.3477 17.4414 72.7344 17.7461 72.0234 17.9648C71.3203 18.1836 70.5273 18.293 69.6445 18.293ZM70.9336 15.5391C71.8008 15.5391 72.5547 15.3828 73.1953 15.0703C73.8359 14.7578 74.332 14.3164 74.6836 13.7461C75.0352 13.1758 75.2109 12.5039 75.2109 11.7305V11.7188C75.2109 10.9453 75.0352 10.2734 74.6836 9.70312C74.332 9.13281 73.8359 8.69531 73.1953 8.39062C72.5547 8.07812 71.8008 7.92188 70.9336 7.92188C70.0586 7.92188 69.3047 8.07422 68.6719 8.37891C68.0469 8.67578 67.5664 9.10938 67.2305 9.67969C66.8945 10.25 66.7266 10.9258 66.7266 11.707V11.7305C66.7266 12.5195 66.8945 13.1992 67.2305 13.7695C67.5664 14.3398 68.0469 14.7773 68.6719 15.082C69.3047 15.3867 70.0586 15.5391 70.9336 15.5391ZM89.0273 18.293C87.3867 18.293 85.9727 18.0391 84.7852 17.5312C83.5977 17.0156 82.6836 16.2695 82.043 15.293C81.4102 14.3164 81.0938 13.1406 81.0938 11.7656V11.7539C81.0938 10.4023 81.418 9.23438 82.0664 8.25C82.7148 7.25781 83.6211 6.49219 84.7852 5.95312C85.9492 5.41406 87.3086 5.14844 88.8633 5.15625C90.4414 5.16406 91.8008 5.44531 92.9414 6C94.0898 6.54688 94.9688 7.32031 95.5781 8.32031C96.1953 9.3125 96.5039 10.4766 96.5039 11.8125V12.5508H83.0039V10.4766H94.125L92.9766 12.0352V11.2852C92.9766 10.543 92.8125 9.90625 92.4844 9.375C92.1641 8.83594 91.7031 8.42188 91.1016 8.13281C90.5 7.84375 89.7773 7.69922 88.9336 7.69922C88.043 7.69922 87.2852 7.83984 86.6602 8.12109C86.0352 8.40234 85.5547 8.82031 85.2188 9.375C84.8828 9.92969 84.7148 10.6133 84.7148 11.4258V12C84.7148 12.9062 84.9102 13.6367 85.3008 14.1914C85.6914 14.7461 86.2188 15.1484 86.8828 15.3984C87.5469 15.6484 88.3008 15.7734 89.1445 15.7734C89.7148 15.7734 90.2383 15.7109 90.7148 15.5859C91.1992 15.4609 91.6172 15.2852 91.9688 15.0586C92.3281 14.8242 92.5977 14.5508 92.7773 14.2383L92.8125 14.1562H96.3164L96.293 14.2734C96.1055 14.9062 95.7969 15.4727 95.3672 15.9727C94.9375 16.4648 94.4062 16.8867 93.7734 17.2383C93.1406 17.582 92.4258 17.8438 91.6289 18.0234C90.832 18.2031 89.9648 18.293 89.0273 18.293ZM103.02 18L96.9141 5.44922H100.828L105.035 14.8125H105.105L109.195 5.44922H113.051L107.027 18H103.02Z" fill="white"/>
<path d="M126.539 12.8555C125.859 12.8555 125.203 12.7852 124.57 12.6445C123.938 12.5039 123.312 12.3398 122.695 12.1523C122.078 11.9648 121.457 11.8008 120.832 11.6602C120.207 11.5117 119.562 11.4375 118.898 11.4375C118.172 11.4375 117.5 11.5312 116.883 11.7188C116.273 11.8984 115.719 12.1562 115.219 12.4922V9.80859C115.672 9.42578 116.238 9.125 116.918 8.90625C117.598 8.67969 118.355 8.56641 119.191 8.56641C119.871 8.56641 120.523 8.64062 121.148 8.78906C121.773 8.92969 122.391 9.09375 123 9.28125C123.609 9.46875 124.227 9.63281 124.852 9.77344C125.477 9.91406 126.121 9.98438 126.785 9.98438C127.512 9.98438 128.188 9.89453 128.812 9.71484C129.438 9.53516 130.004 9.26953 130.512 8.91797V11.6133C130.059 11.9961 129.492 12.3008 128.812 12.5273C128.133 12.7461 127.375 12.8555 126.539 12.8555ZM140.625 18.293C139.109 18.293 137.816 18.1367 136.746 17.8242C135.676 17.5117 134.84 17.0625 134.238 16.4766C133.637 15.8828 133.285 15.1758 133.184 14.3555L133.172 14.25L136.84 14.2617L136.852 14.3438C136.992 14.875 137.379 15.2734 138.012 15.5391C138.652 15.7969 139.539 15.9258 140.672 15.9258C141.344 15.9258 141.91 15.8672 142.371 15.75C142.832 15.6328 143.184 15.4648 143.426 15.2461C143.668 15.0273 143.789 14.7617 143.789 14.4492V14.4375C143.789 14.0547 143.625 13.7656 143.297 13.5703C142.977 13.375 142.406 13.2305 141.586 13.1367L138.152 12.7969C137.129 12.6797 136.277 12.4688 135.598 12.1641C134.918 11.8516 134.406 11.4492 134.062 10.957C133.727 10.457 133.559 9.86719 133.559 9.1875V9.17578C133.559 8.33984 133.82 7.62109 134.344 7.01953C134.875 6.41797 135.633 5.95703 136.617 5.63672C137.609 5.31641 138.789 5.15625 140.156 5.15625C141.602 5.15625 142.828 5.31641 143.836 5.63672C144.852 5.95703 145.637 6.41016 146.191 6.99609C146.746 7.57422 147.055 8.26562 147.117 9.07031L147.129 9.1875H143.672L143.66 9.11719C143.574 8.625 143.23 8.23828 142.629 7.95703C142.027 7.66797 141.219 7.52344 140.203 7.52344C139.555 7.52344 139.008 7.58203 138.562 7.69922C138.125 7.81641 137.789 7.98438 137.555 8.20312C137.328 8.41406 137.215 8.67578 137.215 8.98828V9C137.215 9.24219 137.285 9.44922 137.426 9.62109C137.574 9.79297 137.809 9.93359 138.129 10.043C138.449 10.1445 138.875 10.2266 139.406 10.2891L142.898 10.6406C144.539 10.8125 145.719 11.1836 146.438 11.7539C147.164 12.3242 147.527 13.1172 147.527 14.1328V14.1445C147.527 15.0039 147.25 15.7461 146.695 16.3711C146.148 16.9883 145.359 17.4648 144.328 17.8008C143.305 18.1289 142.07 18.293 140.625 18.293ZM156.492 18.1875C154.656 18.1875 153.312 17.8477 152.461 17.168C151.609 16.4883 151.184 15.3984 151.184 13.8984V8.0625H148.605V5.44922H151.184V2.32031H154.934V5.44922H158.871V8.0625H154.934V13.4297C154.934 14.2031 155.129 14.7539 155.52 15.082C155.91 15.4023 156.559 15.5625 157.465 15.5625C157.723 15.5625 157.973 15.5508 158.215 15.5273C158.465 15.5039 158.684 15.4766 158.871 15.4453V18C158.543 18.0547 158.176 18.0977 157.77 18.1289C157.363 18.168 156.938 18.1875 156.492 18.1875ZM166.629 18.293C165.457 18.293 164.449 18.0742 163.605 17.6367C162.762 17.1992 162.109 16.5625 161.648 15.7266C161.195 14.8828 160.969 13.8633 160.969 12.668V5.44922H164.707V11.918C164.707 13.0586 164.988 13.9336 165.551 14.543C166.121 15.1523 166.957 15.457 168.059 15.457C168.629 15.457 169.148 15.3711 169.617 15.1992C170.094 15.0273 170.504 14.7812 170.848 14.4609C171.191 14.1328 171.453 13.7344 171.633 13.2656C171.82 12.7969 171.914 12.2695 171.914 11.6836V5.44922H175.652V18H171.914V15.5508H171.844C171.547 16.1055 171.148 16.5898 170.648 17.0039C170.148 17.418 169.559 17.7383 168.879 17.9648C168.207 18.1836 167.457 18.293 166.629 18.293ZM184.441 18.293C183.082 18.293 181.898 18.0195 180.891 17.4727C179.883 16.918 179.102 16.1484 178.547 15.1641C178 14.1797 177.727 13.0352 177.727 11.7305V11.707C177.727 10.4023 178 9.25781 178.547 8.27344C179.102 7.28906 179.883 6.52344 180.891 5.97656C181.898 5.42969 183.082 5.15625 184.441 5.15625C185.316 5.15625 186.105 5.26562 186.809 5.48438C187.52 5.70312 188.137 6.01172 188.66 6.41016C189.184 6.80078 189.605 7.25391 189.926 7.76953H190.008V0.972656H193.734V18H190.008V15.6797H189.926C189.605 16.2031 189.184 16.6602 188.66 17.0508C188.145 17.4414 187.531 17.7461 186.82 17.9648C186.117 18.1836 185.324 18.293 184.441 18.293ZM185.73 15.5391C186.598 15.5391 187.352 15.3828 187.992 15.0703C188.633 14.7578 189.129 14.3164 189.48 13.7461C189.832 13.1758 190.008 12.5039 190.008 11.7305V11.7188C190.008 10.9453 189.832 10.2734 189.48 9.70312C189.129 9.13281 188.633 8.69531 187.992 8.39062C187.352 8.07812 186.598 7.92188 185.73 7.92188C184.855 7.92188 184.102 8.07422 183.469 8.37891C182.844 8.67578 182.363 9.10938 182.027 9.67969C181.691 10.25 181.523 10.9258 181.523 11.707V11.7305C181.523 12.5195 181.691 13.1992 182.027 13.7695C182.363 14.3398 182.844 14.7773 183.469 15.082C184.102 15.3867 184.855 15.5391 185.73 15.5391ZM199.09 22.2188C198.684 22.2188 198.297 22.1992 197.93 22.1602C197.57 22.1211 197.254 22.0664 196.98 21.9961V19.3594C197.207 19.4141 197.457 19.457 197.73 19.4883C198.012 19.5195 198.297 19.5352 198.586 19.5352C199.195 19.5352 199.719 19.4414 200.156 19.2539C200.594 19.0742 200.953 18.7656 201.234 18.3281L201.492 17.8711L195.375 5.44922H199.336L203.871 15.4922L203.238 14.8711H204.094L203.461 15.4922L207.773 5.44922H211.664L205.922 17.5664C205.367 18.707 204.777 19.6172 204.152 20.2969C203.527 20.9844 202.805 21.4766 201.984 21.7734C201.172 22.0703 200.207 22.2188 199.09 22.2188ZM217.629 22.1133C216.832 21.1367 216.18 20.1016 215.672 19.0078C215.164 17.9219 214.789 16.7617 214.547 15.5273C214.312 14.293 214.195 12.9766 214.195 11.5781C214.195 10.1641 214.316 8.83984 214.559 7.60547C214.801 6.36328 215.172 5.19922 215.672 4.11328C216.18 3.02734 216.832 2 217.629 1.03125H220.922C220.492 1.53906 220.09 2.18359 219.715 2.96484C219.34 3.74609 219.012 4.61328 218.73 5.56641C218.457 6.51953 218.242 7.50781 218.086 8.53125C217.93 9.55469 217.852 10.5664 217.852 11.5664C217.852 12.5586 217.93 13.5703 218.086 14.6016C218.242 15.625 218.457 16.6133 218.73 17.5664C219.012 18.5117 219.34 19.375 219.715 20.1562C220.09 20.9453 220.492 21.5977 220.922 22.1133H217.629ZM225.375 22.1133H222.082C222.52 21.5977 222.922 20.9453 223.289 20.1562C223.664 19.375 223.988 18.5117 224.262 17.5664C224.543 16.6133 224.762 15.625 224.918 14.6016C225.074 13.5703 225.152 12.5586 225.152 11.5664C225.152 10.5664 225.074 9.55469 224.918 8.53125C224.762 7.50781 224.543 6.51953 224.262 5.56641C223.988 4.61328 223.664 3.74609 223.289 2.96484C222.922 2.18359 222.52 1.53906 222.082 1.03125H225.375C226.172 2 226.824 3.03125 227.332 4.125C227.84 5.21094 228.215 6.37109 228.457 7.60547C228.699 8.83984 228.82 10.1641 228.82 11.5781C228.82 12.9766 228.699 14.293 228.457 15.5273C228.215 16.7617 227.84 17.9258 227.332 19.0195C226.824 20.1133 226.172 21.1445 225.375 22.1133Z" fill="#0088CC"/>
</svg>
